<svg width="100" height="100" viewBox="0 0 100 100" fill="none" xmlns="http://www.w3.org/2000/svg">
<path d="M80 45C80 43.6739 79.4732 42.4021 78.5355 41.4645C77.5979 40.5268 76.3261 40 75 40C73.6739 40 72.4021 40.5268 71.4645 41.4645C70.5268 42.4021 70 43.6739 70 45C70 46.3261 70.5268 47.5979 71.4645 48.5355C72.4021 49.4732 73.6739 50 75 50C76.3261 50 77.5979 49.4732 78.5355 48.5355C79.4732 47.5979 80 46.3261 80 45ZM75 60C76.3261 60 77.5979 60.5268 78.5355 61.4645C79.4732 62.4021 80 63.6739 80 65C80 66.3261 79.4732 67.5979 78.5355 68.5355C77.5979 69.4732 76.3261 70 75 70C73.6739 70 72.4021 69.4732 71.4645 68.5355C70.5268 67.5979 70 66.3261 70 65C70 63.6739 70.5268 62.4021 71.4645 61.4645C72.4021 60.5268 73.6739 60 75 60ZM60 45C60 43.6739 59.4732 42.4021 58.5355 41.4645C57.5979 40.5268 56.3261 40 55 40C53.6739 40 52.4021 40.5268 51.4645 41.4645C50.5268 42.4021 50 43.6739 50 45C50 46.3261 50.5268 47.5979 51.4645 48.5355C52.4021 49.4732 53.6739 50 55 50C56.3261 50 57.5979 49.4732 58.5355 48.5355C59.4732 47.5979 60 46.3261 60 45ZM55 60C56.3261 60 57.5979 60.5268 58.5355 61.4645C59.4732 62.4021 60 63.6739 60 65C60 66.3261 59.4732 67.5979 58.5355 68.5355C57.5979 69.4732 56.3261 70 55 70C53.6739 70 52.4021 69.4732 51.4645 68.5355C50.5268 67.5979 50 66.3261 50 65C50 63.6739 50.5268 62.4021 51.4645 61.4645C52.4021 60.5268 53.6739 60 55 60V60ZM40 45C40 43.6739 39.4732 42.4021 38.5355 41.4645C37.5979 40.5268 36.3261 40 35 40C33.6739 40 32.4021 40.5268 31.4645 41.4645C30.5268 42.4021 30 43.6739 30 45C30 46.3261 30.5268 47.5979 31.4645 48.5355C32.4021 49.4732 33.6739 50 35 50C36.3261 50 37.5979 49.4732 38.5355 48.5355C39.4732 47.5979 40 46.3261 40 45ZM100 25C100 18.3696 97.3661 12.0107 92.6777 7.32233C87.9893 2.63392 81.6304 0 75 0H25C18.3696 0 12.0107 2.63392 7.32233 7.32233C2.63392 12.0107 0 18.3696 0 25V75C0 81.6304 2.63392 87.9893 7.32233 92.6777C12.0107 97.3661 18.3696 100 25 100H75C81.6304 100 87.9893 97.3661 92.6777 92.6777C97.3661 87.9893 100 81.6304 100 75V25ZM75 10C78.1033 9.99837 81.1306 10.9593 83.6649 12.7503C86.1992 14.5413 88.1156 17.0742 89.15 20H10.85C11.8844 17.0742 13.8008 14.5413 16.3351 12.7503C18.8694 10.9593 21.8967 9.99837 25 10H75ZM10 30H90V75C90 78.9782 88.4196 82.7936 85.6066 85.6066C82.7936 88.4196 78.9782 90 75 90H25C21.0218 90 17.2064 88.4196 14.3934 85.6066C11.5804 82.7936 10 78.9782 10 75V30Z" fill="black"/>
</svg>
