<svg width="106" height="100" viewBox="0 0 106 100" fill="none" xmlns="http://www.w3.org/2000/svg">
<path d="M36.6091 53.2218C36.6091 54.4285 36.2512 55.6082 35.5808 56.6116C34.9103 57.615 33.9574 58.397 32.8425 58.8588C31.7276 59.3206 30.5008 59.4415 29.3172 59.206C28.1336 58.9706 27.0464 58.3895 26.1931 57.5362C25.3398 56.6829 24.7587 55.5957 24.5233 54.4121C24.2878 53.2285 24.4087 52.0017 24.8705 50.8868C25.3323 49.7719 26.1143 48.819 27.1177 48.1485C28.1211 47.4781 29.3008 47.1202 30.5075 47.1202C32.1258 47.1202 33.6777 47.7631 34.822 48.9073C35.9662 50.0516 36.6091 51.6035 36.6091 53.2218ZM75.252 47.1202C74.0452 47.1202 72.8655 47.4781 71.8621 48.1485C70.8588 48.819 70.0767 49.7719 69.6149 50.8868C69.1531 52.0017 69.0323 53.2285 69.2677 54.4121C69.5031 55.5957 70.0842 56.6829 70.9375 57.5362C71.7908 58.3895 72.878 58.9706 74.0616 59.206C75.2452 59.4415 76.472 59.3206 77.5869 58.8588C78.7018 58.397 79.6547 57.615 80.3252 56.6116C80.9956 55.6082 81.3535 54.4285 81.3535 53.2218C81.3535 51.6035 80.7106 50.0516 79.5664 48.9073C78.4221 47.7631 76.8702 47.1202 75.252 47.1202ZM105.76 8.12143V51.1879C105.76 78.0854 82.0145 100 52.8798 100C23.745 100 0 78.0854 0 51.1879V8.12143C0.00274968 6.51444 0.481369 4.94425 1.37548 3.60896C2.26959 2.27367 3.53913 1.23309 5.02396 0.618488C6.50878 0.00388972 8.14237 -0.157191 9.71864 0.155563C11.2949 0.468318 12.7432 1.2409 13.8809 2.37584L22.6264 11.1213C26.4806 8.65672 30.6324 6.69189 34.982 5.27406L35.7955 5.01983C46.9125 1.49605 58.8471 1.49605 69.964 5.01983L70.7775 5.27406C75.1271 6.69189 79.2789 8.65672 83.1331 11.1213L91.8786 2.37584C93.0163 1.2409 94.4646 0.468318 96.0409 0.155563C97.6171 -0.157191 99.2507 0.00388972 100.736 0.618488C102.22 1.23309 103.49 2.27367 104.384 3.60896C105.278 4.94425 105.757 6.51444 105.76 8.12143ZM97.6242 8.12143L86.4889 19.3075C85.7872 19.9929 84.8639 20.4053 83.8852 20.4706C82.9064 20.5358 81.9366 20.2496 81.1501 19.6635C78.6822 17.8232 76.0228 16.2548 73.2181 14.9856V26.7819C73.2181 27.8607 72.7896 28.8953 72.0267 29.6582C71.2639 30.421 70.2293 30.8496 69.1504 30.8496C68.0716 30.8496 67.037 30.421 66.2742 29.6582C65.5113 28.8953 65.0828 27.8607 65.0828 26.7819V12.0874C62.4162 11.3832 59.6947 10.9069 56.9474 10.6637V26.7819C56.9474 27.8607 56.5189 28.8953 55.756 29.6582C54.9932 30.421 53.9586 30.8496 52.8798 30.8496C51.8009 30.8496 50.7663 30.421 50.0035 29.6582C49.2406 28.8953 48.8121 27.8607 48.8121 26.7819V10.6637C46.0649 10.9069 43.3433 11.3832 40.6767 12.0874V26.7819C40.6767 27.8607 40.2482 28.8953 39.4853 29.6582C38.7225 30.421 37.6879 30.8496 36.6091 30.8496C35.5302 30.8496 34.4956 30.421 33.7328 29.6582C32.9699 28.8953 32.5414 27.8607 32.5414 26.7819V14.9856C29.7367 16.2548 27.0773 17.8232 24.6094 19.6635C23.8229 20.2496 22.8531 20.5358 21.8743 20.4706C20.8956 20.4053 19.9723 19.9929 19.2706 19.3075L8.13535 8.12143V51.1879C8.13535 72.3907 26.0331 89.8308 48.8121 91.7121V81.3395L41.8462 74.4245C41.1975 73.6342 40.8661 72.6308 40.9162 71.6096C40.9664 70.5884 41.3946 69.6224 42.1175 68.8994C42.8405 68.1765 43.8065 67.7482 44.8277 67.6981C45.8489 67.6479 46.8523 67.9794 47.6426 68.6281L52.8798 73.916L58.1169 68.6281C58.9072 67.9794 59.9106 67.6479 60.9318 67.6981C61.953 67.7482 62.919 68.1765 63.642 68.8994C64.3649 69.6224 64.7931 70.5884 64.8433 71.6096C64.8934 72.6308 64.562 73.6342 63.9133 74.4245L56.9474 81.3395V91.7121C79.7264 89.8308 97.6242 72.3907 97.6242 51.1879V8.12143Z" fill="black"/>
</svg>
