<svg width="120" height="100" viewBox="0 0 120 100" fill="none" xmlns="http://www.w3.org/2000/svg">
<path d="M0 20V80C0 85.3043 2.10714 90.3914 5.85786 94.1421C9.60859 97.8929 14.6957 100 20 100H100C105.304 100 110.391 97.8929 114.142 94.1421C117.893 90.3914 120 85.3043 120 80V30C120 24.6957 117.893 19.6086 114.142 15.8579C110.391 12.1071 105.304 10 100 10H51.75L40.62 1.1C39.7349 0.389931 38.6347 0.00202144 37.5 0H20C14.6957 0 9.60859 2.10714 5.85786 5.85786C2.10714 9.60859 0 14.6957 0 20V20ZM10 20C10 17.3478 11.0536 14.8043 12.9289 12.9289C14.8043 11.0536 17.3478 10 20 10H35.75L44.43 16.94L35.57 25H10V20ZM55.93 20H100C102.652 20 105.196 21.0536 107.071 22.9289C108.946 24.8043 110 27.3478 110 30V80C110 82.6522 108.946 85.1957 107.071 87.0711C105.196 88.9464 102.652 90 100 90H20C17.3478 90 14.8043 88.9464 12.9289 87.0711C11.0536 85.1957 10 82.6522 10 80V35H37.5C38.7426 34.9992 39.9405 34.5358 40.86 33.7L55.93 20Z" fill="black"/>
</svg>
