<svg width="114" height="110" viewBox="0 0 114 110" fill="none" xmlns="http://www.w3.org/2000/svg">
<path d="M39.6379 81.9081H74.2757M85.8217 105H28.0919C21.9676 105 16.094 102.567 11.7635 98.2365C7.43289 93.906 5 88.0324 5 81.9081V45.5845C4.99992 41.614 6.02365 37.7104 7.97232 34.251C9.921 30.7915 12.7288 27.8929 16.1245 25.8352L44.9894 8.34303C48.5982 6.1562 52.7372 5 56.9568 5C61.1764 5 65.3154 6.1562 68.9242 8.34303L97.7891 25.8352C101.184 27.8924 103.991 30.7901 105.94 34.2484C107.888 37.7068 108.913 41.6092 108.914 45.5787V81.9081C108.914 88.0324 106.481 93.906 102.15 98.2365C97.8196 102.567 91.946 105 85.8217 105Z" stroke="black" stroke-width="10" stroke-linecap="round" stroke-linejoin="round"/>
</svg>
